<svg xmlns="http://www.w3.org/2000/svg" width="42.913" height="42.913" viewBox="0 0 42.913 42.913">
  <path id="basketball-svgrepo-com" d="M97.411,97.855a17.89,17.89,0,0,0,5.428-11.49,12,12,0,0,0-11.307-.653A35.685,35.685,0,0,1,97.411,97.855Zm-2.575,2.069a32.727,32.727,0,0,0-5.85-12.612,11.981,11.981,0,0,0-2.622,15.528A17.9,17.9,0,0,0,94.837,99.923Zm-11.885,2.865a14.974,14.974,0,0,1,4.122-17.779Q86,83.83,84.82,82.757a14.974,14.974,0,0,1-17.74,4.134,17.952,17.952,0,0,0,15.872,15.893Zm-15.92-19.3a11.981,11.981,0,0,0,15.486-2.64,32.727,32.727,0,0,0-12.573-5.817,17.9,17.9,0,0,0-2.913,8.457Zm4.984-11.032a35.685,35.685,0,0,1,12.1,5.85,12,12,0,0,0-.629-11.277A17.89,17.89,0,0,0,72.016,72.456ZM86.895,67.08a14.991,14.991,0,0,1-.4,13.16,36.477,36.477,0,0,1,3.1,3.092,15.007,15.007,0,0,1,13.2-.38A17.967,17.967,0,0,0,86.9,67.08ZM99.753,99.752a20.957,20.957,0,1,1,0-29.637A20.957,20.957,0,0,1,99.753,99.752Z" transform="translate(-63.477 -63.477)" fill="#fff" stroke="#fff" stroke-width="1"/>
</svg>
