<svg xmlns="http://www.w3.org/2000/svg" width="42.695" height="35.58" viewBox="0 0 42.695 35.58">
  <g id="content-svgrepo-com" transform="translate(0 -2)">
    <path id="Path_60" data-name="Path 60" d="M11.116,10.558H5.779A1.779,1.779,0,0,1,5.779,7h5.337a1.779,1.779,0,0,1,0,3.558Zm0,7.116H5.779a1.779,1.779,0,0,1,0-3.558h5.337a1.779,1.779,0,1,1,0,3.558Zm0,7.116H5.779a1.779,1.779,0,1,1,0-3.558h5.337a1.779,1.779,0,1,1,0,3.558ZM25.348,10.558h5.337a1.779,1.779,0,0,0,0-3.558H25.348a1.779,1.779,0,0,0,0,3.558Zm0,7.116h5.337a1.779,1.779,0,0,0,0-3.558H25.348a1.779,1.779,0,0,0,0,3.558Zm0,7.116h5.337a1.779,1.779,0,1,0,0-3.558H25.348a1.779,1.779,0,0,0,0,3.558Z" transform="translate(3.116 3.895)" fill="#fff" fill-rule="evenodd"/>
    <path id="Path_61" data-name="Path 61" d="M39.137,2H23.127a3.535,3.535,0,0,0-1.779.48A3.547,3.547,0,0,0,19.569,2H3.558A3.569,3.569,0,0,0,0,5.558V34.021a3.569,3.569,0,0,0,3.558,3.558H19.569a3.348,3.348,0,0,0,1.726-.463.089.089,0,0,1,.107,0,3.348,3.348,0,0,0,1.726.463H39.137A3.569,3.569,0,0,0,42.7,34.021V5.558A3.569,3.569,0,0,0,39.137,2ZM18.679,34.021H4.447a.889.889,0,0,1-.889-.889V6.447a.889.889,0,0,1,.889-.889H18.679a.889.889,0,0,1,.889.889V33.132A.889.889,0,0,1,18.679,34.021Zm20.458-.889a.889.889,0,0,1-.889.889H24.016a.889.889,0,0,1-.889-.889V6.447a.889.889,0,0,1,.889-.889H38.248a.889.889,0,0,1,.889.889Z" transform="translate(0 0)" fill="#fff" fill-rule="evenodd"/>
  </g>
</svg>
