<svg xmlns="http://www.w3.org/2000/svg" width="23.79" height="15.612" viewBox="0 0 23.79 15.612">
  <g id="email-svgrepo-com_8_" data-name="email-svgrepo-com (8)" transform="translate(0 -53.155)">
    <path id="Path_124" data-name="Path 124" d="M2.23,68.767H21.56a2.231,2.231,0,0,0,2.23-2.23V55.385a2.23,2.23,0,0,0-2.23-2.23H2.23A2.231,2.231,0,0,0,0,55.385V66.537A2.231,2.231,0,0,0,2.23,68.767Z" transform="translate(0 0)" fill="#f4b459"/>
    <g id="Group_197" data-name="Group 197" transform="translate(0 53.713)">
      <path id="Path_125" data-name="Path 125" d="M.748,74.891l9.3-7.159L.768,60.413A2.216,2.216,0,0,0,0,62.085V73.237A2.214,2.214,0,0,0,.748,74.891Zm22.29-14.465L13.39,67.752l9.639,7.15a2.212,2.212,0,0,0,.761-1.665V62.085A2.218,2.218,0,0,0,23.038,60.426Z" transform="translate(0 -60.413)" fill="#e8ab54"/>
    </g>
    <path id="Path_126" data-name="Path 126" d="M28.143,69.391l-8.124-6.5,8.222-6.649a2.232,2.232,0,0,0-.854-.976l-10.5,8.4L6.1,55.069a2.231,2.231,0,0,0-1.064.829l8.684,6.965-8.572,6.83a2.221,2.221,0,0,0,1.153.755l8.492-6.717.518.418a2.183,2.183,0,0,0,3.151,0l.482-.39L27.2,70.293A2.224,2.224,0,0,0,28.143,69.391Z" transform="translate(-4.648 -1.767)" fill="#fadaac"/>
  </g>
</svg>
