<svg xmlns="http://www.w3.org/2000/svg" xmlns:xlink="http://www.w3.org/1999/xlink" width="198" height="198" viewBox="0 0 198 198">
  <defs>
    <filter id="Ellipse_21" x="0" y="0" width="198" height="198" filterUnits="userSpaceOnUse">
      <feOffset dy="3" input="SourceAlpha"/>
      <feGaussianBlur stdDeviation="3" result="blur"/>
      <feFlood flood-color="#b6d0e6"/>
      <feComposite operator="in" in2="blur"/>
      <feComposite in="SourceGraphic"/>
    </filter>
  </defs>
  <g id="Group_298" data-name="Group 298" transform="translate(-1040 -248)">
    <g transform="matrix(1, 0, 0, 1, 1040, 248)" filter="url(#Ellipse_21)">
      <circle id="Ellipse_21-2" data-name="Ellipse 21" cx="90" cy="90" r="90" transform="translate(9 6)" fill="#fff"/>
    </g>
    <g id="user-svgrepo-com_13_" data-name="user-svgrepo-com (13)" transform="translate(1061 298)">
      <g id="Group_194" data-name="Group 194" transform="translate(41.445 1.445)">
        <path id="Path_114" data-name="Path 114" d="M179.1,333.279l-18.3,8.668-18.3-8.668s6.569-3.429,8.668-5.76c.347.385,4.219,4.8,9.631,4.8,5.663,0,9.631-4.816,9.631-4.816C172.53,329.85,179.1,333.279,179.1,333.279Z" transform="translate(-124.2 -265.859)" fill="#afb6bb"/>
        <path id="Path_115" data-name="Path 115" d="M274.1,373.873v4.816H237.5V366.168l18.3-8.668C274.041,363.279,274.1,373.873,274.1,373.873Z" transform="translate(-200.901 -290.081)" fill="#ffd248"/>
        <path id="Path_116" data-name="Path 116" d="M84.1,366.168v12.521H47.5v-4.816s.173-10.537,18.3-16.373Z" transform="translate(-47.5 -290.081)" fill="#ffd248"/>
        <path id="Path_117" data-name="Path 117" d="M147.7,24.856c-.039,5.76-20.226,6.723-20.226,6.723S126.47,7.5,148.66,7.5c22.152,0,21.189,24.078,21.189,24.078A42.142,42.142,0,0,1,147.7,24.856Z" transform="translate(-112.061 -7.5)" fill="#9b8579"/>
        <path id="Path_118" data-name="Path 118" d="M346.45,157.5c3.2,0,5.779,1.194,5.779,3.853,0,2.466-3.044,5.316-6.029,5.721a30.619,30.619,0,0,0,.25-3.795Z" transform="translate(-288.662 -128.606)" fill="#ffd7a3"/>
        <path id="Path_119" data-name="Path 119" d="M169.627,118.712v.019c-1.04,7.532-5.124,13.831-11.307,17.028a.483.483,0,0,1-.135.077,21.632,21.632,0,0,1-18.993,0,.483.483,0,0,1-.135-.077c-6.183-3.2-10.267-9.5-11.307-17.028v-.019a30.622,30.622,0,0,1-.25-3.795V104.323s20.187-.963,20.226-6.723a42.142,42.142,0,0,0,22.152,6.723v10.594A30.622,30.622,0,0,1,169.627,118.712Z" transform="translate(-112.09 -80.244)" fill="#ffe1b2"/>
        <path id="Path_120" data-name="Path 120" d="M206.763,295.7v6.126s-3.968,4.816-9.631,4.816c-5.413,0-9.285-4.411-9.631-4.8V295.7a.483.483,0,0,0,.135.077,21.632,21.632,0,0,0,18.993,0A.483.483,0,0,0,206.763,295.7Z" transform="translate(-160.532 -240.185)" fill="#ffd7a3"/>
        <path id="Path_121" data-name="Path 121" d="M103.279,163.279a30.619,30.619,0,0,0,.25,3.795c-2.986-.4-6.029-3.255-6.029-5.721,0-2.658,2.581-3.853,5.779-3.853Z" transform="translate(-87.869 -128.606)" fill="#ffd7a3"/>
      </g>
      <g id="Group_195" data-name="Group 195" transform="translate(40)">
        <path id="Path_122" data-name="Path 122" d="M96.9,67.526A45.542,45.542,0,0,1,89.12,62.5v-4.68c5.86-3.349,9.863-9.354,11.138-16.7,3.314-.951,6.2-4.061,6.2-6.923,0-2.9-2.178-4.821-5.779-5.219V25.55c0-.129,0-1.472,0-1.472h-.011c-.125-3.441-1.037-12-6.779-17.976C90,2.053,84.666,0,78.044,0,71.4,0,66.063,2.057,62.171,6.115c-5.77,6.015-6.644,14.636-6.755,18.031H55.41s0,1.27,0,1.405v3.421c-3.6.4-5.779,2.321-5.779,5.219,0,2.862,2.884,5.972,6.2,6.923,1.275,7.348,5.279,13.353,11.138,16.7v4.7a46.213,46.213,0,0,1-7.785,5.015C40.4,73.619,40.008,84.742,40,85.213V91.5h76.088V85.229C116.085,84.755,115.807,73.562,96.9,67.526ZM78.044,75.934,62.911,68.766a41.972,41.972,0,0,0,5.461-3.644c1.781,1.662,5.247,4.224,9.672,4.224,4.522,0,8.015-2.662,9.68-4.23a41.575,41.575,0,0,0,5.454,3.65Zm8.187-13.4c-.988,1.033-4.12,3.927-8.187,3.927-3.9,0-6.951-2.65-8.187-3.921V59.2a23.374,23.374,0,0,0,16.373,0Zm17.336-28.337c0,1.181-1.278,2.789-2.944,3.676.036-.594.055-5.99.055-5.99C103.252,32.237,103.567,33.569,103.567,34.191ZM64.256,8.115c3.326-3.468,7.965-5.226,13.788-5.226,5.8,0,10.424,1.75,13.748,5.2,4.954,5.145,5.829,12.812,5.974,15.954A41.306,41.306,0,0,1,77.913,17.62l-2.259-1.6-.019,2.767c-.008,1.164-2.357,2.854-8.927,4.107a79.891,79.891,0,0,1-8.389,1.08C58.464,20.805,59.34,13.24,64.256,8.115ZM52.521,34.191c0-.623.315-1.954,2.889-2.315,0,0,.019,5.4.055,5.99C53.8,36.98,52.521,35.372,52.521,34.191Zm6.029,5.64-.011-.1a28.978,28.978,0,0,1-.239-3.616V26.878a82.512,82.512,0,0,0,8.924-1.138C72.959,24.65,76.471,23.087,77.852,21A43.835,43.835,0,0,0,97.788,26.94v9.178a28.931,28.931,0,0,1-.239,3.615l-.011.089v.009c-1.013,7.136-4.845,12.908-10.526,15.846l-.2.1-.013.013a20.2,20.2,0,0,1-17.513,0l-.211-.115C63.4,52.739,59.563,46.967,58.55,39.831ZM42.889,85.255c.011-.289.525-9.416,16.759-14.838L76.6,78.446V88.608H42.889ZM113.2,88.608H79.488V78.446l16.955-8.031c4.839,1.594,11.1,4.491,14.564,9.426a11.035,11.035,0,0,1,2.19,5.412v3.355Z" transform="translate(-40)" fill="#231f20"/>
        <path id="Path_123" data-name="Path 123" d="M231.445,186.65H235.3V183.76h-2.408V177.5H230v7.705A1.445,1.445,0,0,0,231.445,186.65Z" transform="translate(-193.401 -143.309)" fill="#231f20"/>
      </g>
    </g>
  </g>
</svg>
