<svg xmlns="http://www.w3.org/2000/svg" width="35" height="35" viewBox="0 0 35 35">
  <g id="Group_294" data-name="Group 294" transform="translate(-1795 -278)">
    <circle id="Ellipse_26" data-name="Ellipse 26" cx="17.5" cy="17.5" r="17.5" transform="translate(1795 278)" fill="#fff"/>
    <g id="camera-svgrepo-com_1_" data-name="camera-svgrepo-com (1)" transform="translate(1800.424 282.75)">
      <path id="Path_130" data-name="Path 130" d="M8.25,13A3.75,3.75,0,1,1,12,16.75,3.75,3.75,0,0,1,8.25,13ZM12,10.75A2.25,2.25,0,1,0,14.25,13,2.25,2.25,0,0,0,12,10.75Z" fill="#003969" fill-rule="evenodd"/>
      <path id="Path_131" data-name="Path 131" d="M10.616,5.75A1.892,1.892,0,0,0,8.724,7.642,1.278,1.278,0,0,1,7.549,8.917L5.319,9.1a.975.975,0,0,0-.88.791,20.819,20.819,0,0,0-.1,7.181l.1.6a1.255,1.255,0,0,0,1.138,1.052l1.942.158a55.367,55.367,0,0,0,8.964,0l1.942-.158a1.255,1.255,0,0,0,1.138-1.052l.1-.6a20.82,20.82,0,0,0-.1-7.181.975.975,0,0,0-.879-.791l-2.23-.181a1.278,1.278,0,0,1-1.175-1.274A1.892,1.892,0,0,0,13.384,5.75ZM7.23,7.438A3.393,3.393,0,0,1,10.616,4.25h2.768A3.393,3.393,0,0,1,16.77,7.438L18.8,7.6A2.475,2.475,0,0,1,21.034,9.61a22.316,22.316,0,0,1,.106,7.7l-.1.6a2.755,2.755,0,0,1-2.5,2.308l-1.942.158a56.881,56.881,0,0,1-9.207,0l-1.942-.158a2.755,2.755,0,0,1-2.5-2.308l-.1-.6a22.319,22.319,0,0,1,.106-7.7A2.475,2.475,0,0,1,5.2,7.6Z" fill="#003969" fill-rule="evenodd"/>
    </g>
  </g>
</svg>
