<svg xmlns="http://www.w3.org/2000/svg" width="33.527" height="34.564" viewBox="0 0 33.527 34.564">
  <g id="home-svgrepo-com_9_" data-name="home-svgrepo-com (9)" transform="translate(-20.875 -34.791)">
    <path id="Path_47" data-name="Path 47" d="M53.724,47.507l-14.9-12.29a1.865,1.865,0,0,0-2.374,0l-14.9,12.29a1.865,1.865,0,0,0-.679,1.439V67.489a1.865,1.865,0,0,0,1.866,1.866h29.8A1.865,1.865,0,0,0,54.4,67.489V48.946A1.863,1.863,0,0,0,53.724,47.507ZM39.611,65.624H35.666V55.295h3.945V65.624Zm11.06,0H43.343V53.429a1.865,1.865,0,0,0-1.866-1.866H33.8a1.865,1.865,0,0,0-1.866,1.866V65.624H24.607v-15.8L37.639,39.075,50.671,49.826Z" fill="#fff"/>
  </g>
</svg>
