<svg xmlns="http://www.w3.org/2000/svg" width="45.216" height="45.216" viewBox="0 0 45.216 45.216">
  <g id="information-signal-svgrepo-com" transform="translate(0.75 0.75)">
    <path id="Path_63" data-name="Path 63" d="M156.875,167.339h-.6l.005-13.46a1.691,1.691,0,0,0-1.691-1.658h-5.4a1.692,1.692,0,1,0,0,3.385h.927v11.734h-.6a1.692,1.692,0,1,0,0,3.385h7.352a1.692,1.692,0,1,0,0-3.385Z" transform="translate(-131.176 -135.374)" fill="#fff"/>
    <circle id="Ellipse_11" data-name="Ellipse 11" cx="3.554" cy="3.554" r="3.554" transform="translate(18.473 8.367)" fill="#fff"/>
    <path id="Path_64" data-name="Path 64" d="M34.641,0H9.075A9.085,9.085,0,0,0,0,9.075V34.64a9.086,9.086,0,0,0,9.075,9.076H34.641a9.086,9.086,0,0,0,9.075-9.076V9.075A9.085,9.085,0,0,0,34.641,0Zm7.415,34.64a7.424,7.424,0,0,1-7.415,7.416H9.075A7.424,7.424,0,0,1,1.66,34.64V9.075A7.423,7.423,0,0,1,9.075,1.66H34.641a7.423,7.423,0,0,1,7.415,7.415Z" fill="#fff" stroke="#fff" stroke-width="1.5"/>
  </g>
</svg>
