<svg xmlns="http://www.w3.org/2000/svg" width="14.669" height="14" viewBox="0 0 14.669 14">
  <g id="Group_205" data-name="Group 205" transform="translate(-9323.657 2293.17)">
    <path id="Path_127" data-name="Path 127" d="M135.3,132.14a.5.5,0,0,0-.405-.342l-4.46-.648-1.995-4.041a.5.5,0,0,0-.9,0l-1.994,4.041-4.46.648a.5.5,0,0,0-.278.857l3.227,3.145-.762,4.442a.5.5,0,0,0,.729.529l3.989-2.1,3.989,2.1a.5.5,0,0,0,.729-.529l-.286-1.667-.235-1.371-.241-1.4,3.227-3.145A.5.5,0,0,0,135.3,132.14Z" transform="translate(9203 -2419.999)" fill="#ffd960"/>
    <g id="Group_199" data-name="Group 199" transform="translate(9323.657 -2288.285)" opacity="0.1">
      <path id="Path_128" data-name="Path 128" d="M124.421,225.65a.5.5,0,0,1-.2-.491l.762-4.442-3.227-3.145a.5.5,0,0,1-.127-.515.5.5,0,0,1,.044-.1l-.583.085a.5.5,0,0,0-.278.857l3.227,3.145-.762,4.442a.5.5,0,0,0,.729.529l.564-.3A.5.5,0,0,1,124.421,225.65Z" transform="translate(-120.66 -216.961)" fill="#231f20"/>
    </g>
  </g>
</svg>
