<svg xmlns="http://www.w3.org/2000/svg" width="18.139" height="23.91" viewBox="0 0 18.139 23.91">
  <path id="user-svgrepo-com_14_" data-name="user-svgrepo-com (14)" d="M25.139,20.594a3.307,3.307,0,0,0-1.828-2.957l-3.938-1.969a1.5,1.5,0,0,1-.83-1.343V12.78a5.887,5.887,0,0,0,.373-.479,9.055,9.055,0,0,0,1.224-2.467,1.236,1.236,0,0,0,.877-1.177V7.008a1.23,1.23,0,0,0-.412-.914V3.71S21.093,0,16.069,0s-4.535,3.71-4.535,3.71V6.094a1.23,1.23,0,0,0-.412.914V8.657a1.236,1.236,0,0,0,.57,1.038,8.177,8.177,0,0,0,1.491,3.085v1.507A1.5,1.5,0,0,1,12.4,15.6L8.723,17.611A3.306,3.306,0,0,0,7,20.514v1.335c0,1.138,4.061,2.061,9.069,2.061s9.069-.923,9.069-2.061V20.594Z" transform="translate(-7)" fill="#88c057"/>
</svg>
