<svg xmlns="http://www.w3.org/2000/svg" width="38.639" height="35.5" viewBox="0 0 38.639 35.5">
  <g id="XMLID_341_" transform="translate(0 -12.623)">
    <path id="XMLID_348_" d="M38.217,26.021a5.565,5.565,0,0,0,3.307-1.085,7.791,7.791,0,0,0,12.722,0,5.6,5.6,0,1,0,0-9.02,7.791,7.791,0,0,0-12.722,0,5.594,5.594,0,1,0-3.307,10.106ZM57.553,18.56a1.865,1.865,0,1,1-1.865,1.865A1.867,1.867,0,0,1,57.553,18.56Zm-9.668-2.207a4.072,4.072,0,1,1-4.072,4.072A4.077,4.077,0,0,1,47.885,16.353ZM38.217,18.56a1.865,1.865,0,1,1-1.865,1.865A1.867,1.867,0,0,1,38.217,18.56Z" transform="translate(-28.566)" fill="#003969"/>
    <path id="XMLID_440_" d="M28.987,150.372a9.63,9.63,0,0,0-6.538,2.553,14.331,14.331,0,0,0-6.258,0A9.651,9.651,0,0,0,0,160.024a1.865,1.865,0,0,0,1.865,1.865H5.919a14.23,14.23,0,0,0-.9,4.99,1.865,1.865,0,0,0,1.865,1.865H31.754a1.865,1.865,0,0,0,1.865-1.865,14.228,14.228,0,0,0-.9-4.99h4.054a1.865,1.865,0,0,0,1.865-1.865A9.663,9.663,0,0,0,28.987,150.372ZM4.031,158.159a5.919,5.919,0,0,1,7.979-3.565,14.408,14.408,0,0,0-4.015,3.565Zm4.884,6.855a10.571,10.571,0,0,1,20.809,0Zm21.729-6.855a14.41,14.41,0,0,0-4.015-3.565,5.919,5.919,0,0,1,7.979,3.565Z" transform="translate(0 -120.621)" fill="#003969"/>
  </g>
</svg>
